<svg aria-hidden="true" style="position:absolute;width:0;height:0" xmlns="http://www.w3.org/2000/svg" overflow="hidden"><defs>
<symbol id="icon-brand" viewBox="0 0 40 32"><path  d="M3.055 26.742c.156.194.24.438.236.688a1.092 1.092 0 01-.365.869 1.575 1.575 0 01-1.061.317H0v-4.361h1.827c.361-.024.718.078 1.012.29a.998.998 0 01.354.816c.011.241-.065.477-.212.667a.997.997 0 01-.556.341c.247.045.471.177.63.373zm-2.187-.658h.781a.736.736 0 00.496-.145.515.515 0 00.167-.426.526.526 0 00-.165-.426.75.75 0 00-.511-.147H.868v1.144zm1.354 1.672a.54.54 0 00.185-.443.56.56 0 00-.188-.448.803.803 0 00-.53-.158H.87v1.199h.83a.822.822 0 00.524-.151zM6.79 28.617l-1.016-1.704h-.382v1.704h-.874v-4.361h1.655c.417-.029.83.104 1.152.371a1.394 1.394 0 01.123 1.804 1.342 1.342 0 01-.789.443l1.082 1.743H6.79zm-1.398-2.299h.715c.497 0 .745-.22.745-.66a.641.641 0 00-.183-.49.771.771 0 00-.562-.177h-.724l.008 1.327zM11.568 27.739H9.826l-.308.878h-.917l1.6-4.312h.991l1.593 4.312h-.917l-.301-.878zm-.233-.66l-.637-1.841-.637 1.841h1.273zM17.55 28.617h-.868l-1.946-2.965v2.965h-.866v-4.361h.866l1.946 2.983v-2.983h.868v4.361zM22.502 27.573a1.877 1.877 0 01-.785.769 2.546 2.546 0 01-1.22.275h-1.545v-4.361h1.545c.422-.011.841.081 1.22.268.332.168.606.433.785.761a2.541 2.541 0 010 2.288zm-.993-.104a1.601 1.601 0 000-2.082 1.506 1.506 0 00-1.086-.371h-.603v2.823h.603a1.5 1.5 0 001.086-.371zM12.111 0s11.201 4.246 10.963 10.39v10.392S11.881 16.534 12.115 10.39L12.111 0zM33.054 18.349a15.301 15.301 0 017.117-2.633v-3.253a14.62 14.62 0 00-7.117 5.886z"/><path  d="M31.783 19.329a15.237 15.237 0 018.388-7.548V2.407S24.219 8.455 24.557 17.204v14.795s.711-.27 1.829-.778c0-.473 0-.95.051-1.43a15.387 15.387 0 015.347-10.464z"/><path  d="M30.266 24.825a15.35 15.35 0 01.558-3.029 14.323 14.323 0 00-3.377 8.937c.906-.437 1.96-.982 3.068-1.623a15.355 15.355 0 01-.248-4.284zM30.9 24.878a14.705 14.705 0 00.197 3.879c4.358-2.618 9.255-6.664 9.067-11.553v-.426a14.276 14.276 0 00-8.292 3.89 14.648 14.648 0 00-.972 4.21z"/></symbol>
<symbol id="icon-compane-two" viewBox="0 0 35 32"><path  d="M5.491 31.394c.013 0 .026.003.038.007s.022.011.031.019l.178.162a1.464 1.464 0 01-.501.307 2.022 2.022 0 01-.71.11 1.974 1.974 0 01-.668-.103 1.476 1.476 0 01-.503-.291 1.304 1.304 0 01-.325-.449 1.44 1.44 0 01-.114-.576 1.344 1.344 0 01.122-.578c.078-.167.195-.32.345-.449.152-.127.334-.226.534-.293.219-.07.453-.105.688-.103a1.96 1.96 0 01.639.094c.176.063.338.151.479.26l-.149.173a.13.13 0 01-.038.031.104.104 0 01-.06.013.162.162 0 01-.065-.018l-.08-.046-.111-.059a1.272 1.272 0 00-.352-.103 1.67 1.67 0 00-.265-.018 1.52 1.52 0 00-.494.077 1.013 1.013 0 00-.639.563 1.098 1.098 0 00-.091.457c-.003.158.028.315.091.464a1 1 0 00.616.558c.145.05.301.075.458.074.091.001.182-.004.272-.015a1.122 1.122 0 00.588-.237.138.138 0 01.085-.029zM10.632 30.58c.003.195-.038.389-.12.573-.073.166-.187.318-.335.445s-.328.226-.526.292a2.278 2.278 0 01-1.353 0 1.566 1.566 0 01-.523-.293 1.312 1.312 0 01-.338-.449 1.43 1.43 0 010-1.147c.076-.167.191-.32.338-.451.149-.123.327-.218.523-.282.435-.14.918-.14 1.353 0 .198.066.377.166.525.293.146.128.261.279.336.444.082.184.123.38.12.576zm-.467 0a1.162 1.162 0 00-.085-.46.949.949 0 00-.238-.344 1.054 1.054 0 00-.376-.217 1.636 1.636 0 00-.984 0 1.07 1.07 0 00-.376.217.91.91 0 00-.24.344 1.29 1.29 0 000 .92c.05.127.132.245.24.344.104.094.233.168.376.215.317.098.667.098.984 0 .143-.048.272-.121.376-.215a.949.949 0 00.238-.344c.06-.148.088-.304.085-.46zM14.14 31.062l.047.103c.018-.037.033-.07.051-.103a.849.849 0 01.058-.101l1.137-1.71c.022-.029.042-.048.065-.053a.295.295 0 01.094-.009h.336v2.781h-.398v-2.045-.086a.769.769 0 010-.096l-1.144 1.734c-.014.026-.038.048-.067.063s-.063.023-.098.023h-.065c-.035 0-.069-.008-.098-.023s-.052-.037-.067-.064l-1.177-1.745V31.963h-.385v-2.776h.336a.33.33 0 01.094.009c.028.011.05.03.062.053l1.162 1.712a.624.624 0 01.058.099zM18.42 30.924v1.042h-.445v-2.777h.993c.187-.003.374.018.554.061.144.034.278.093.392.173a.731.731 0 01.223.272.803.803 0 01.076.355.764.764 0 01-.322.633 1.152 1.152 0 01-.394.184 1.93 1.93 0 01-.536.064l-.539-.007zm0-.298h.539a1.33 1.33 0 00.345-.042.757.757 0 00.249-.12.49.49 0 00.151-.184.507.507 0 00.053-.234c.005-.077-.01-.154-.045-.226s-.088-.137-.156-.19a.992.992 0 00-.599-.149h-.539v1.145zM24.403 31.97h-.352a.174.174 0 01-.098-.026.177.177 0 01-.058-.064l-.303-.672h-1.52l-.314.672a.16.16 0 01-.056.063.172.172 0 01-.1.028h-.352l1.335-2.782h.463l1.353 2.782zM22.2 30.937h1.255l-.53-1.132a1.73 1.73 0 01-.1-.261l-.051.145a1.056 1.056 0 01-.049.118l-.525 1.13zM26.326 29.201a.187.187 0 01.067.05l1.947 2.097v-.098-2.062h.398v2.781h-.223a.214.214 0 01-.091-.017.233.233 0 01-.071-.052l-1.945-2.095a.769.769 0 010 .096v2.068h-.398v-2.781h.236a.213.213 0 01.08.013zM32.019 30.863v1.105h-.445v-1.105l-1.231-1.675h.398a.168.168 0 01.096.024.239.239 0 01.06.063l.77 1.081a1.246 1.246 0 01.136.247l.058-.12a.969.969 0 01.076-.127l.759-1.088a.27.27 0 01.058-.059.157.157 0 01.096-.028h.403l-1.233 1.682zM13.92 24.521c.194.02.39.037.588.052 3.003-1.111 5.544-2.93 7.304-5.228s2.663-4.975 2.594-7.696l-3.31-2.737c.673 2.896.358 5.89-.909 8.647s-3.437 5.168-6.267 6.962z"/><path d="M12.738 24.393l.089.015c3.024-1.789 5.329-4.286 6.618-7.17s1.502-6.021.612-9.006l-4.714-3.899c1.907 3.205 2.674 6.791 2.213 10.342s-2.132 6.921-4.817 9.718zM28.725 14.862c-.801 2.989-2.746 5.685-5.547 7.687a17.84 17.84 0 01-2.635 1.565c2.28-.554 4.376-1.534 6.126-2.865s3.107-2.975 3.967-4.808l-1.912-1.579z"/><path  d="M27.975 14.422l-2.722-2.251c-.052 2.567-.934 5.075-2.555 7.264s-3.921 3.979-6.662 5.185h.013c.611 0 1.221-.03 1.827-.09 2.561-.865 4.824-2.24 6.586-4.004s2.969-3.861 3.512-6.104zM13.132 2.689L9.885 0c-2.903.928-5.4 2.559-7.163 4.679S.01 9.311.001 11.885c.011 2.844 1.168 5.604 3.289 7.843s5.084 3.829 8.42 4.518c2.978-3.001 4.722-6.709 4.978-10.586s-.99-7.72-3.556-10.971zM35.478 14.008c-.012-3.374-1.638-6.608-4.523-8.994S24.16 1.283 20.08 1.274a18.06 18.06 0 00-5.513.849L34.45 18.566a10.7 10.7 0 001.028-4.558z"/></symbol>
<symbol id="icon-facebook" viewBox="0 0 32 32"><path  d="M21.329 5.313h2.921V.225C23.746.156 22.013 0 19.994 0c-4.212 0-7.097 2.649-7.097 7.519V12H8.249v5.688h4.648V32h5.699V17.689h4.46l.708-5.688h-5.169V8.082c.001-1.644.444-2.769 2.735-2.769z"/></symbol>
<symbol id="icon-instagram" viewBox="0 0 32 32"><path  d="M31.969 9.408c-.075-1.7-.35-2.869-.744-3.882a7.806 7.806 0 00-1.851-2.838A7.867 7.867 0 0026.542.844C25.523.45 24.36.175 22.66.1 20.947.019 20.403 0 16.059 0s-4.888.019-6.595.094c-1.7.075-2.869.35-3.882.744a7.803 7.803 0 00-2.838 1.85A7.867 7.867 0 00.9 5.52C.506 6.539.231 7.702.156 9.402c-.081 1.713-.1 2.257-.1 6.601s.019 4.888.094 6.595c.075 1.7.35 2.869.744 3.882a7.895 7.895 0 001.85 2.838 7.867 7.867 0 002.832 1.844c1.019.394 2.182.669 3.882.744 1.706.075 2.25.094 6.595.094s4.888-.019 6.595-.094c1.7-.075 2.869-.35 3.882-.744a8.184 8.184 0 004.682-4.682c.394-1.019.669-2.182.744-3.882.075-1.707.094-2.251.094-6.595s-.006-4.888-.081-6.595zm-2.882 13.065c-.069 1.563-.331 2.407-.55 2.969a5.31 5.31 0 01-3.038 3.038c-.563.219-1.413.481-2.969.55-1.688.075-2.194.094-6.464.094s-4.782-.019-6.464-.094c-1.563-.069-2.407-.331-2.969-.55a4.926 4.926 0 01-1.838-1.194 4.974 4.974 0 01-1.194-1.838c-.219-.563-.481-1.413-.55-2.969-.075-1.688-.094-2.194-.094-6.464s.019-4.782.094-6.464c.069-1.563.331-2.407.55-2.969a4.868 4.868 0 011.2-1.838A4.974 4.974 0 016.639 3.55c.563-.219 1.413-.481 2.969-.55 1.688-.075 2.194-.094 6.464-.094 4.276 0 4.782.019 6.464.094 1.563.069 2.407.331 2.969.55a4.914 4.914 0 011.838 1.194 4.974 4.974 0 011.194 1.838c.219.563.481 1.413.55 2.969.075 1.688.094 2.194.094 6.464s-.019 4.77-.094 6.458z"/><path  d="M16.059 7.783c-4.538 0-8.22 3.682-8.22 8.22s3.682 8.22 8.22 8.22 8.22-3.682 8.22-8.22-3.682-8.22-8.22-8.22zm0 13.552a5.333 5.333 0 010-10.664 5.333 5.333 0 010 10.664zM26.524 7.458a1.919 1.919 0 11-3.838 0 1.919 1.919 0 013.838 0z"/></symbol>
<symbol id="icon-linkedin" viewBox="0 0 32 32"><path  d="M31.992 32v-.001H32V20.263c0-5.741-1.236-10.164-7.948-10.164-3.227 0-5.392 1.771-6.276 3.449h-.093v-2.913h-6.364v21.364h6.627V21.42c0-2.785.528-5.479 3.977-5.479 3.399 0 3.449 3.179 3.449 5.657v10.401h6.62zM.528 10.636h6.635V32H.528V10.636zM3.843 0C1.722 0 0 1.721 0 3.843s1.721 3.879 3.843 3.879c2.121 0 3.843-1.757 3.843-3.879A3.846 3.846 0 003.843 0z"/></symbol>
<symbol id="icon-logo" viewBox="0 0 25 32"><path  d="M10.447 1.806h.084c.156 0 .324.016.49.03.734.052 1.463.162 2.179.329V.403a12.97 12.97 0 00-2.25-.358 18.11 18.11 0 00-.909-.044h-.263a18.35 18.35 0 00-4.515.582 18.3 18.3 0 00-4.79 1.948v17.475a19.484 19.484 0 014.566-1.779 19.948 19.948 0 013.833-.588h.051c.216-.011.433-.017.655-.019v-1.79a21.155 21.155 0 00-4.982.662 23.81 23.81 0 00-1.731.513l-.623.211V3.591l.266-.128a17.409 17.409 0 016.471-1.651.523.523 0 01.056 0c.248-.013.497-.019.741-.019h.28c.129.003.258.006.388.014z"/><path  d="M14.837 3.651a15.823 15.823 0 01-2.606-.211c-.277-.047-.55-.103-.814-.164v17.275a13.82 13.82 0 003.425.404 18.396 18.396 0 004.515-.581 18.362 18.362 0 004.792-1.948V1.263a19.58 19.58 0 01-4.564 1.781 19.388 19.388 0 01-4.747.609zm6.908.299l.623-.21v13.63l-.266.128a17.055 17.055 0 01-3.184 1.144c-1.331.344-2.7.522-4.074.527-.411 0-.819-.017-1.214-.052l-.427-.038V5.062l.497.033c.361.023.735.034 1.141.034a21.098 21.098 0 005.173-.663 26.802 26.802 0 001.731-.518zM1.684 25.977a.912.912 0 00-.693-.28 1.034 1.034 0 00-.4.075.91.91 0 00-.512.518 1.023 1.023 0 00-.072.387v2.335c-.006.165.026.328.092.479.055.12.135.226.233.313a.815.815 0 00.321.166c.114.032.231.048.349.049a.972.972 0 00.892-.61.951.951 0 00.075-.372v-.261h-.61v.208a.528.528 0 01-.036.208.359.359 0 01-.089.131.365.365 0 01-.128.067.425.425 0 01-.128.022.314.314 0 01-.286-.125.548.548 0 01-.081-.313v-2.177a.738.738 0 01.075-.349.31.31 0 01.299-.141.33.33 0 01.272.131c.068.09.104.2.101.313v.202h.604v-.238a1.093 1.093 0 00-.279-.737zM5.31 25.95a1.051 1.051 0 00-1.38 0 .961.961 0 00-.237.327 1.099 1.099 0 00-.089.452v2.239a1.08 1.08 0 00.089.459c.055.12.136.227.237.313a.94.94 0 00.322.197 1.028 1.028 0 00.728 0c.121-.044.233-.111.33-.197a.948.948 0 00.23-.313 1.08 1.08 0 00.089-.459v-2.239a1.08 1.08 0 00-.089-.452 1.015 1.015 0 00-.23-.327zm-.285 3.019a.405.405 0 01-.121.324.445.445 0 01-.574 0 .397.397 0 01-.121-.324V26.73a.405.405 0 01.121-.324.445.445 0 01.574 0 .397.397 0 01.121.324v2.239zM10.072 29.969V25.73h-.587l-.771 2.244h-.011l-.777-2.244h-.581v4.239h.606V27.39h.011l.593 1.823h.302l.598-1.823h.011v2.579h.606zM13.513 26.027a.844.844 0 00-.342-.232 1.363 1.363 0 00-.439-.066h-.9v4.239h.604v-1.656h.311c.188.009.376-.031.545-.116a.882.882 0 00.332-.324 1.02 1.02 0 00.139-.369c.024-.16.035-.321.033-.482a2.421 2.421 0 00-.059-.606.898.898 0 00-.223-.39zm-.312 1.292a.547.547 0 01-.056.221.346.346 0 01-.156.149.619.619 0 01-.285.053h-.276v-1.441h.311a.585.585 0 01.273.053.349.349 0 01.142.157.62.62 0 01.053.236v.282c0 .099.006.2 0 .291h-.006zM16.374 25.73h-.495l-.934 4.239h.604l.177-.911h.824l.177.911h.604l-.957-4.239zm-.557 2.751l.297-1.537h.011l.296 1.537h-.604zM20.277 28.284h-.011l-.912-2.554h-.581v4.239h.604V27.42h.012l.923 2.549h.568V25.73h-.604v2.554zM23.968 25.73l-.486 1.685h-.012l-.486-1.685h-.64l.83 2.447v1.792h.604v-1.792l.83-2.447h-.64zM0 31.166h.291v.817h.198v-.817h.29v-.167H.001v.167zM2.447 30.998l-.381.984h.21l.081-.224h.392l.084.224h.215l-.391-.984h-.21zm-.031.595l.134-.365.134.365h-.268zM4.866 31.62h.227v.127a.382.382 0 01-.234.083.244.244 0 01-.209-.093.411.411 0 01-.073-.257c0-.219.095-.329.283-.329a.206.206 0 01.222.157l.195-.038c-.042-.192-.181-.289-.417-.289a.495.495 0 00-.344.127.494.494 0 00-.141.379.532.532 0 00.126.369.477.477 0 00.374.144.59.59 0 00.417-.157v-.388h-.427v.166zM7.337 30.998h-.199v.984h.69v-.167h-.49v-.817zM9.426 30.998h-.199v.984h.199v-.984zM11.469 31.656l-.403-.657h-.193v.984h.185v-.643l.395.643h.198v-.984h-.182v.657zM13.315 31.549h.49v-.167h-.49v-.216h.528v-.167h-.727v.984h.747v-.167h-.548v-.266zM17.792 31.387h-.388v-.388h-.198v.984h.198v-.43h.388v.43h.198v-.984h-.198v.388zM19.649 31.549h.492v-.167h-.492v-.216h.529v-.167h-.727v.984h.746v-.167h-.548v-.266zM22.168 31.549c.171-.027.258-.117.258-.274a.236.236 0 00-.096-.219.553.553 0 00-.288-.058h-.417v.984h.198v-.412h.039a.261.261 0 01.123.022.21.21 0 01.07.072l.215.313h.237l-.12-.192a.685.685 0 00-.218-.236zm-.199-.136h-.146v-.247h.156a.526.526 0 01.201.023c.014.013.026.029.033.046a.133.133 0 01-.005.111.128.128 0 01-.037.043.547.547 0 01-.201.023zM24.067 31.549h.49v-.167h-.49v-.216h.529v-.167h-.729v.984h.747v-.167h-.548v-.266z"/></symbol>
<symbol id="icon-mail" viewBox="0 0 43 32"><path d="M38.667 0H4C1.794 0 0 1.794 0 4v24c0 2.206 1.794 4 4 4h34.667c2.206 0 4-1.794 4-4V4c0-2.206-1.794-4-4-4zm0 2.667c.181 0 .353.038.511.103L21.334 18.236 3.49 2.77a1.32 1.32 0 01.511-.103h34.667zm0 26.666H4A1.334 1.334 0 012.667 28V5.587L20.46 21.008a1.335 1.335 0 001.748 0L40.001 5.587V28c0 .736-.598 1.333-1.333 1.333z"/></symbol>
<symbol id="icon-smartphone" viewBox="0 0 20 32"><path  d="M17 0H3C1.346 0 0 1.346 0 3v26c0 1.654 1.346 3 3 3h14c1.654 0 3-1.346 3-3V3c0-1.654-1.346-3-3-3zM3 2h14a1 1 0 011 1v21H2V3a1 1 0 011-1zm14 28H3a1 1 0 01-1-1v-3h16v3a1 1 0 01-1 1z"/><path  d="M4.707 27.478c.391.365.391.956 0 1.321s-1.024.365-1.414 0c-.391-.365-.391-.956 0-1.321s1.024-.365 1.414 0z"/></symbol>
<symbol id="icon-tag" viewBox="0 0 59 32"><path  d="M29.606 15.038a2.4 2.4 0 01-.377-1.449v-2.1c0-.644.125-1.133.375-1.468s.68-.501 1.289-.5c.573 0 .979.142 1.219.427.262.364.39.808.361 1.256v.494h-1.024v-.5a2.856 2.856 0 00-.03-.489.498.498 0 00-.146-.291.53.53 0 00-.371-.113.556.556 0 00-.39.12.583.583 0 00-.17.32 2.817 2.817 0 00-.04.519v2.549c-.016.246.029.492.131.716a.488.488 0 00.468.213.505.505 0 00.363-.115.541.541 0 00.153-.31c.024-.169.035-.34.032-.511v-.517h1.024v.472c.029.467-.096.931-.354 1.321-.235.312-.636.468-1.226.468s-1.035-.167-1.287-.513zM33.871 15.059c-.259-.327-.388-.803-.388-1.434v-2.209c0-.624.129-1.096.388-1.417s.691-.48 1.298-.479c.602 0 1.033.16 1.292.479.259.32.39.793.39 1.417v2.209c0 .624-.132 1.103-.395 1.432s-.691.494-1.287.494-1.037-.167-1.298-.491zm1.775-.53c.093-.205.135-.429.123-.654V11.17c.012-.22-.03-.44-.121-.641-.052-.077-.124-.138-.209-.176s-.178-.051-.27-.038a.495.495 0 00-.482.214c-.093.2-.136.42-.123.641v2.718c-.013.225.029.449.123.654a.637.637 0 00.742.162.634.634 0 00.216-.162v-.013zM38.083 9.585h1.103l.829 4.076.848-4.076h1.073l.108 5.884h-.793l-.085-4.089-.819 4.089h-.636l-.848-4.104-.078 4.104h-.802l.1-5.884zM43.281 9.585h1.718c.99 0 1.485.557 1.485 1.671 0 1.067-.521 1.6-1.563 1.598h-.585v2.615h-1.06l.006-5.884zm1.468 2.515a.732.732 0 00.583-.185c.122-.199.175-.432.153-.664a2.127 2.127 0 00-.051-.534.455.455 0 00-.212-.279.954.954 0 00-.473-.094h-.411v1.758h.411zM48.013 9.585h1.139l1.169 5.884h-.988l-.231-1.357h-1.016l-.238 1.357h-1.003l1.169-5.884zm.973 3.846l-.397-2.47-.397 2.47h.793zM51.264 9.585h.742l1.421 3.356V9.585h.88v5.884h-.706l-1.429-3.504v3.504h-.91l.002-5.884zM56.369 13.225l-1.181-3.632h.995l.721 2.333.677-2.333h.973l-1.166 3.632v2.243H56.37v-2.243zM31.244 18.041v.308h-.865v2.391h-.363v-2.391h-.87v-.308h2.098zM33.956 20.74h-.28a.107.107 0 01-.078-.026.145.145 0 01-.047-.062l-.25-.641h-1.2l-.25.641a.183.183 0 01-.038.073.117.117 0 01-.078.026h-.28l1.06-2.698h.369l1.073 2.688zM32.2 19.738h1.001l-.424-1.098a2.256 2.256 0 01-.078-.254l-.04.143-.038.113-.42 1.096zM35.784 20.475c.066.003.133.003.199 0 .057-.006.114-.017.17-.032.052-.013.103-.029.153-.049.047-.019.093-.043.142-.066v-.607h-.424c-.011.001-.021-.001-.031-.005s-.019-.009-.026-.017a.062.062 0 01-.021-.049v-.207h.823v1.034a1.431 1.431 0 01-.447.22 1.71 1.71 0 01-.265.056 2.672 2.672 0 01-.31.017 1.414 1.414 0 01-.534-.1 1.26 1.26 0 01-.424-.282 1.318 1.318 0 01-.274-.427 1.551 1.551 0 01-.098-.56c-.002-.192.03-.383.095-.564a1.236 1.236 0 01.698-.707c.182-.069.374-.103.568-.1.099 0 .197.008.295.023a1.285 1.285 0 01.464.175c.065.042.127.089.184.141l-.102.167c-.008.015-.02.028-.034.037s-.031.014-.048.014a.132.132 0 01-.066-.021 1.096 1.096 0 01-.104-.064 1.1 1.1 0 00-.606-.156 1.079 1.079 0 00-.409.075.892.892 0 00-.509.549 1.457 1.457 0 000 .9.97.97 0 00.522.554c.135.047.278.065.42.053zM39.165 20.432h1.158v.308h-1.512v-2.699h.363l-.008 2.391zM41.527 20.74h-.363v-2.699h.363v2.699zM42.876 18.054c.022.012.04.029.055.049l1.55 2.034a.769.769 0 010-.096V18.03h.316v2.709h-.182a.15.15 0 01-.078-.015.213.213 0 01-.057-.051l-1.548-2.032v2.098h-.303V18.04h.189c.02 0 .041.004.059.013zM47.468 18.041v.297h-1.285v.891h1.041v.286h-1.041v.921h1.285v.297h-1.659v-2.692h1.659zM9.465 1.376l16.103 4.607v16.142L9.465 17.521V1.377zM8.432 0v18.304l18.167 5.198V5.2L8.432-.001z"/><path  d="M18.169 32L0 26.797V8.494l18.169 5.201V32z"/><path d="M8.733 1.169l15.893 4.549-6.759 6.811L1.972 7.978l6.761-6.809zM8.432 0L0 8.495l18.169 5.2 8.43-8.495L8.432 0zM19.191 30.97l7.408-7.465-7.408-2.122v9.587z"/></symbol>
<symbol id="icon-twitter" viewBox="0 0 32 32"><path  d="M32 6.078c-1.19.522-2.458.868-3.78 1.036a6.523 6.523 0 002.886-3.626 13.11 13.11 0 01-4.16 1.588A6.574 6.574 0 0022.154 3c-3.632 0-6.556 2.948-6.556 6.562 0 .52.044 1.02.152 1.496-5.454-.266-10.28-2.88-13.522-6.862a6.605 6.605 0 00-.898 3.316 6.57 6.57 0 002.914 5.452 6.479 6.479 0 01-2.964-.808v.072c0 3.188 2.274 5.836 5.256 6.446a6.548 6.548 0 01-1.72.216 5.8 5.8 0 01-1.242-.112c.85 2.598 3.262 4.508 6.13 4.57a13.182 13.182 0 01-8.134 2.798c-.538 0-1.054-.024-1.57-.09A18.469 18.469 0 0010.064 29c12.072 0 18.672-10 18.672-18.668 0-.29-.01-.57-.024-.848A13.087 13.087 0 0032 6.078z"/></symbol>
<symbol id="icon-ya-go" viewBox="0 0 37 32"><path  d="M4.97 0l6.053 4.497h16.884v12.545l6.053 4.497V0H4.971z"/><path  d="M0 4.308v20.923h28.161v-8.317L11.201 4.313 0 4.308zM22.796 22.17H4.456V8.098h1.296v13.119h17.044v.953zM7.864 29.164l.545-1.123h.456l-.794 1.497v.872h-.413v-.872l-.796-1.497h.457l.545 1.123zm2.34.695h-.918l-.192.552h-.428l.895-2.37h.369l.897 2.37h-.43l-.194-.552zm-.802-.332h.687l-.343-.983-.343.983zm2.425.244c0-.11.03-.21.09-.301.06-.092.177-.201.353-.327a1.538 1.538 0 01-.194-.296.58.58 0 01-.054-.236c0-.186.056-.332.169-.439a.633.633 0 01.456-.163c.173 0 .314.051.423.153a.487.487 0 01.166.376.52.52 0 01-.075.273.894.894 0 01-.246.247l-.161.117.457.54a.947.947 0 00.099-.435h.343c0 .292-.068.531-.205.718l.348.412h-.459l-.133-.158c-.169.127-.371.19-.605.19s-.422-.062-.563-.186a.622.622 0 01-.21-.487zm.784.356a.603.603 0 00.374-.133l-.518-.61-.05.036c-.13.099-.195.212-.195.339 0 .11.035.199.106.267s.165.103.283.103zm-.218-1.526c0 .091.056.206.168.343l.181-.124.05-.041a.294.294 0 00.101-.229.207.207 0 00-.07-.158.245.245 0 00-.177-.067c-.077 0-.138.026-.184.078s-.068.118-.068.197zm4.305 1.038c-.024.253-.117.45-.28.592-.163.141-.379.212-.649.212a.943.943 0 01-.5-.133c-.143-.09-.254-.218-.332-.383s-.119-.356-.122-.575v-.221c0-.224.04-.42.119-.591s.193-.302.34-.394a.957.957 0 01.514-.138c.261 0 .472.071.631.213s.252.343.278.602h-.41c-.02-.17-.069-.293-.15-.368-.079-.076-.196-.114-.35-.114a.482.482 0 00-.413.197c-.096.13-.144.322-.147.575v.21c0 .256.046.451.137.586a.458.458 0 00.404.202c.162 0 .283-.036.365-.109s.133-.194.155-.363h.41zm2.261-.352c0 .232-.04.436-.12.612a.914.914 0 01-.345.404.95.95 0 01-.514.14.96.96 0 01-.514-.14.927.927 0 01-.348-.402 1.424 1.424 0 01-.124-.601v-.133c0-.231.041-.435.122-.612a.918.918 0 01.347-.405c.15-.094.321-.142.514-.142s.364.047.513.14c.15.092.265.226.347.4.081.174.123.376.124.607v.132zm-.412-.123c0-.263-.05-.464-.15-.604s-.239-.21-.422-.21a.487.487 0 00-.418.21c-.1.139-.151.336-.153.591v.137c0 .26.05.462.151.604a.492.492 0 00.423.213.483.483 0 00.42-.208c.099-.139.148-.342.148-.609v-.124z"/></symbol>
<symbol id="icon-foster" viewBox="0 0 60 32"><path d="M9.229 9.548h-.002c-1.684 0-3.048 1.33-3.048 2.971v.002c0 1.641 1.365 2.971 3.048 2.971h.002c1.684 0 3.048-1.33 3.048-2.971v-.002c0-1.641-1.365-2.971-3.048-2.971zM31.73 8.599c-.005-2.279-.936-4.463-2.589-6.074S25.247.006 22.908.001c-2.339.004-4.581.911-6.235 2.523S14.087 6.32 14.083 8.6v12.566S31.728 19.251 31.73 8.602V8.6zM0 25.289c.004 1.586.652 3.105 1.803 4.226s2.709 1.753 4.336 1.758c1.627-.005 3.185-.636 4.336-1.757s1.799-2.64 1.803-4.225v-8.744S0 17.881 0 25.289zm6.139 1.567c-.318 0-.629-.092-.893-.264s-.47-.417-.592-.703-.154-.601-.091-.905c.062-.304.215-.583.44-.802s.511-.368.823-.429c.312-.06.635-.029.929.089s.545.319.721.577a1.537 1.537 0 01.15 1.471 1.585 1.585 0 01-.87.851c-.195.079-.405.12-.617.12v-.006zM18.671 25.884h-1.256v1.297h-.654v-3.174h2.067v.53h-1.413v.82h1.256v.528zm3.144-.218c0 .312-.055.587-.166.822s-.269.417-.475.545c-.205.128-.44.192-.706.192-.263 0-.498-.063-.704-.19s-.366-.307-.48-.541a1.867 1.867 0 01-.172-.811v-.157c0-.312.056-.587.168-.824a1.26 1.26 0 01.477-.547c.206-.128.442-.192.706-.192s.499.064.704.192c.206.126.366.309.477.547.113.237.17.511.17.822v.142zm-.663-.144c0-.333-.06-.586-.179-.759s-.289-.259-.51-.259a.583.583 0 00-.508.257c-.119.17-.18.42-.181.75v.155c0 .324.06.576.179.754s.291.268.515.268c.22 0 .388-.086.506-.257.118-.173.177-.424.179-.754v-.155zm2.784.826a.331.331 0 00-.131-.283c-.087-.067-.244-.137-.471-.209a3.432 3.432 0 01-.539-.218c-.36-.195-.541-.457-.541-.787 0-.172.048-.324.144-.458a.945.945 0 01.416-.316c.182-.076.385-.113.61-.113.227 0 .429.041.606.124a.946.946 0 01.412.347c.099.15.148.32.148.51h-.654a.427.427 0 00-.137-.338c-.092-.081-.22-.122-.386-.122a.602.602 0 00-.373.102.317.317 0 00-.133.266c0 .103.052.19.155.259.105.07.258.135.46.196.372.112.643.251.813.416s.255.372.255.619a.767.767 0 01-.312.648c-.208.156-.488.233-.839.233-.244 0-.467-.044-.667-.133a1.07 1.07 0 01-.46-.368.945.945 0 01-.157-.541h.656c0 .35.209.525.628.525a.61.61 0 00.364-.094.313.313 0 00.131-.266zm3.491-1.812h-.972v2.645h-.654v-2.645h-.959v-.53h2.586v.53zm2.285 1.269h-1.256v.85h1.474v.525h-2.128v-3.174h2.124v.53h-1.469v.757h1.256v.512zm1.777.214h-.521v1.162h-.654v-3.174h1.18c.375 0 .664.084.868.251s.305.403.305.709a.973.973 0 01-.142.543.95.95 0 01-.425.344l.687 1.297v.03h-.702l-.595-1.162zm-.522-.53h.528c.164 0 .291-.041.382-.124.09-.084.135-.2.135-.347a.476.476 0 00-.129-.353c-.084-.086-.214-.129-.39-.129h-.525v.953zm3.964.574v1.118h-.654v-3.174h1.238c.238 0 .448.044.628.131a.964.964 0 01.419.373c.097.16.146.342.146.547 0 .311-.107.557-.321.737-.212.179-.507.268-.883.268h-.573zm0-.53h.584c.173 0 .305-.041.395-.122.092-.081.137-.198.137-.349 0-.156-.046-.281-.137-.377s-.218-.145-.379-.148h-.6v.996zm4.138.272h-1.256v.85h1.474v.525h-2.128v-3.174h2.124v.53h-1.469v.757h1.256v.512zm3.035-1.269h-.972v2.645h-.654v-2.645h-.959v-.53h2.586v.53zm2.285 1.269h-1.256v.85h1.474v.525h-2.128v-3.174h2.124v.53h-1.469v.757h1.256v.512zm1.777.214h-.521v1.162h-.654v-3.174h1.179c.375 0 .664.084.868.251s.305.403.305.709a.973.973 0 01-.142.543.95.95 0 01-.425.344l.687 1.297v.03h-.702l-.595-1.162zm-.521-.53h.528c.164 0 .291-.041.382-.124.09-.084.135-.2.135-.347a.476.476 0 00-.129-.353c-.084-.086-.214-.129-.39-.129h-.525v.953zm3.844.859a.331.331 0 00-.131-.283c-.087-.067-.244-.137-.471-.209a3.375 3.375 0 01-.538-.218c-.36-.195-.541-.457-.541-.787 0-.172.048-.324.144-.458a.945.945 0 01.416-.316c.182-.076.385-.113.61-.113.227 0 .429.041.606.124a.946.946 0 01.412.347c.099.15.148.32.148.51h-.654a.427.427 0 00-.137-.338c-.092-.081-.22-.122-.386-.122a.602.602 0 00-.373.102.317.317 0 00-.133.266c0 .103.052.19.155.259.105.07.258.135.46.196.372.112.643.251.813.416s.255.372.255.619a.767.767 0 01-.312.648c-.208.156-.488.233-.839.233-.244 0-.467-.044-.667-.133a1.07 1.07 0 01-.46-.368.945.945 0 01-.157-.541h.656c0 .35.209.525.628.525a.61.61 0 00.364-.094.313.313 0 00.131-.266z"/></symbol>

<symbol id="icon-Vector" viewBox="0 0 32 32">

<path d="M 26.667 7.303 l -1.97 -1.97 l -7.808 7.808 l -7.808 -7.808 l -1.97 1.97 l 7.808 7.808 l -7.808 7.808 l 1.97 1.97 l 7.808 -7.808 l 7.808 7.808 l 1.97 -1.97 l -7.808 -7.808 l 7.808 -7.808 Z"/>
</symbol>

 </defs></svg>
